#N canvas 1316 151 248 288 16;
#X obj 41 130 pack f f f;
#X obj 41 93 - 1;
#X obj 41 25 inlet;
#X obj 41 239 outlet~;
#X obj 41 203 /~ \$2;
#X obj 41 63 poly \$2 \$3;
#X text 103 26 MIDI Note;
#X obj 41 167 clone \$1 \$2;
#X connect 0 0 7 0;
#X connect 1 0 0 0;
#X connect 2 0 5 0;
#X connect 4 0 3 0;
#X connect 5 0 1 0;
#X connect 5 1 0 1;
#X connect 5 2 0 2;
#X connect 7 0 4 0;
