#N canvas 826 227 840 602 16;
#X obj 111 198 mtof;
#X floatatom 111 153 5 0 0 0 - - -, f 5;
#X obj 260 481 *~;
#X obj 112 52 inlet;
#X obj 260 524 outlet~;
#X obj 112 98 unpack f f;
#X text 174 51 note \, velocity;
#X floatatom 461 186 5 0 0 0 - - -, f 5;
#X obj 461 219 / 127;
#X obj 180 346 *~;
#X obj 135 294 cycle~;
#X obj 111 403 cycle~;
#X obj 213 293 adsr~ 1000 300 0.6 500;
#X obj 461 310 adsr~ 200 300 0.6 500;
#X obj 668 429 switch~;
#X obj 668 359 tgl 40 0 empty empty empty 17 7 0 10 -228856 -1 -1 1
1;
#X obj 135 244 * 1.49;
#X connect 0 0 11 0;
#X connect 0 0 16 0;
#X connect 1 0 0 0;
#X connect 2 0 4 0;
#X connect 3 0 5 0;
#X connect 5 0 1 0;
#X connect 5 1 7 0;
#X connect 7 0 8 0;
#X connect 8 0 12 0;
#X connect 8 0 13 0;
#X connect 9 0 11 1;
#X connect 10 0 9 0;
#X connect 11 0 2 0;
#X connect 12 0 9 1;
#X connect 13 0 2 1;
#X connect 13 1 15 0;
#X connect 15 0 14 0;
#X connect 16 0 10 0;
