#N canvas 321 147 1232 716 10;
#X text 753 388 The width and height may be ajusted automatically \;
The C value can be 0 12 24 36 48 60 .... \; If other value is passed
the object will round \; it to the lower next C.;
#X text 738 463 KNOW BUG: The computer keyboard buffer is not disabled.
\; It can creates a serie of notes on and off if a key is \; pressed
and not released.;
#X text 739 210 width 476 / height 80 / octaves 4 / first c 48;
#X text 737 147 keyboard 450 80 4 48 0;
#X text 360 456 add transposition -(11 to 11);
#X text 360 485 add send and receive symbols;
#X text 361 516 add inlet/outlet to GUI;
#X text 361 545 add mark to middle C;
#X text 359 574 make "fist c" paramter and a float for C octave (1
is C1 \, 4 is C4 \, -2 is C-2 \, etc).;
#X msg 103 453 4;
#X obj 102 480 * 12;
#X floatatom 103 537 5 0 0 0 - - -, f 5;
#X obj 102 507 + 12;
#X floatatom 141 452 5 0 0 0 - - -, f 5;
#X obj 108 571 mtof;
#X floatatom 111 602 5 0 0 0 - - -, f 5;
#X msg 48 448 3;
#X obj 276 119 makenote 127 500;
#X obj 276 25 tgl 15 0 empty empty empty 17 7 0 10 -262144 -1 -1 0
1;
#X floatatom 625 152 5 0 0 0 - - -, f 5;
#X floatatom 184 158 5 0 0 0 - - -, f 5;
#X msg 135 141 10 0;
#X msg 81 143 10 40;
#X msg 122 223 60 0;
#X msg 68 225 60 40;
#X text 159 257 48;
#X text 642 260 95;
#X obj 276 49 metro 25;
#X floatatom 329 26 5 0 0 0 - - -, f 5;
#X floatatom 384 99 5 0 0 0 - - -, f 5;
#X obj 185 291 unpack;
#X floatatom 224 318 5 0 0 0 - - -, f 5;
#X floatatom 185 353 5 0 0 0 - - -, f 5;
#X obj 185 199 keyboard 448 80 4 3 0;
#X obj 276 73 expr random(50 \, 85);
#X text 365 621 TOGGLE MODE;
#X text 376 322 message methods \; - width \; - height \; - 8ves \;
- low-c \; - up \; - down;
#X connect 9 0 10 0;
#X connect 10 0 12 0;
#X connect 11 0 14 0;
#X connect 12 0 11 0;
#X connect 13 0 10 0;
#X connect 14 0 15 0;
#X connect 16 0 10 0;
#X connect 17 0 20 0;
#X connect 17 1 19 0;
#X connect 18 0 27 0;
#X connect 19 0 33 1;
#X connect 20 0 33 0;
#X connect 27 0 34 0;
#X connect 28 0 27 1;
#X connect 29 0 17 2;
#X connect 30 0 32 0;
#X connect 30 1 31 0;
#X connect 33 0 30 0;
#X connect 34 0 17 0;
