#N canvas 200 124 1401 704 10;
#X text 676 394 KNOW BUG: The computer keyboard buffer is not disabled.
\; It can creates a serie of notes on and off if a key is \; pressed
and not released.;
#X text 757 104 width 476 / height 80 / octaves 4 / first c 48;
#X text 653 63 keyboard 450 80 4 48 0;
#X text 65 539 add transposition -(11 to 11);
#X text 65 568 add send and receive symbols;
#X text 66 599 add inlet/outlet to GUI;
#X obj 161 126 makenote 127 500;
#X obj 161 32 tgl 15 0 empty empty empty 17 7 0 10 -262144 -1 -1 0
1;
#X floatatom 510 159 5 0 0 0 - - -, f 5;
#X floatatom 69 165 5 0 0 0 - - -, f 5;
#X text 44 264 48;
#X text 764 150 95;
#X obj 161 56 metro 25;
#X floatatom 214 33 5 0 0 0 - - -, f 5;
#X floatatom 269 106 5 0 0 0 - - -, f 5;
#X obj 152 331 unpack;
#X floatatom 191 358 5 0 0 0 - - -, f 5;
#X floatatom 160 380 5 0 0 0 - - -, f 5;
#X obj 161 80 expr random(50 \, 85);
#X text 70 631 TOGGLE MODE;
#X msg 484 330 oct up;
#X msg 484 361 oct down;
#X msg 485 433 bottom-C;
#X text 674 349 The width and height may be ajusted automatically \;
The C value are clipped from 0 to 8;
#X obj 188 235 keyboard 18 51 3 3 0;
#X text 676 449 color intensity according to velocity;
#X text 677 482 set velocity output;
#X text 678 511 set starting note (F4 \, Bb3 \, G#5 \, whatever);
#X msg 355 195 width \$1;
#X floatatom 361 176 5 0 0 0 - - -, f 5;
#X floatatom 116 198 5 0 0 0 - - -, f 5;
#X msg 113 219 height \$1;
#X text 55 445 message methods \; - low-c \; - up \; - down \; - enable
keys;
#X msg 485 395 8ves \$1;
#X text 534 393 # of octaves;
#X msg 189 157 oct 1;
#X msg 423 188 60 20;
#X text 667 562 bug: manter as notas selecionadas quando mudar os parâmetros
;
#X text 691 584 (8ves \, oct);
#X obj 177 424 mtof;
#X floatatom 201 455 0 0 0 0 - - -;
#X obj 275 522 output~;
#X obj 457 506 hsl 128 15 0 127 0 0 empty empty empty -2 -8 0 10 -262144
-1 -1 0 1;
#X msg 281 192 8ves 12;
#X obj 270 414 osc~;
#X msg 104 256 oct -1;
#X text 666 623 set octave+/- in keyboard with arrows;
#X msg 205 191 8ves 3;
#X connect 6 0 9 0;
#X connect 6 0 24 0;
#X connect 6 1 8 0;
#X connect 7 0 12 0;
#X connect 8 0 24 1;
#X connect 12 0 18 0;
#X connect 13 0 12 1;
#X connect 14 0 6 2;
#X connect 15 0 17 0;
#X connect 15 1 16 0;
#X connect 17 0 39 0;
#X connect 18 0 6 0;
#X connect 24 0 15 0;
#X connect 28 0 24 0;
#X connect 29 0 28 0;
#X connect 30 0 31 0;
#X connect 31 0 24 0;
#X connect 35 0 24 0;
#X connect 36 0 24 0;
#X connect 39 0 40 0;
#X connect 40 0 44 0;
#X connect 43 0 24 0;
#X connect 44 0 41 0;
#X connect 44 0 41 1;
#X connect 45 0 24 0;
#X connect 47 0 24 0;
