#N canvas 448 101 824 437 10;
#X obj 276 119 makenote 127 500;
#X obj 282 21 tgl 15 0 empty empty empty 17 7 0 10 -262144 -1 -1 0
1;
#X floatatom 615 152 5 0 0 0 - - -, f 5;
#X floatatom 184 158 5 0 0 0 - - -, f 5;
#X obj 184 185 keyboard 448 80 4 48 0;
#X text 159 257 48;
#X text 644 260 95;
#X obj 281 49 metro 25;
#X floatatom 349 48 5 0 0 0 - - -, f 5;
#X floatatom 448 77 5 0 0 0 - - -, f 5;
#X obj 280 73 expr random(20 \, 105);
#X obj 185 291 unpack;
#X floatatom 220 318 5 0 0 0 - - -, f 5;
#X floatatom 190 353 5 0 0 0 - - -, f 5;
#X connect 0 0 3 0;
#X connect 0 1 2 0;
#X connect 1 0 7 0;
#X connect 2 0 4 1;
#X connect 3 0 4 0;
#X connect 4 0 11 0;
#X connect 7 0 10 0;
#X connect 8 0 7 1;
#X connect 9 0 0 2;
#X connect 10 0 0 0;
#X connect 11 0 13 0;
#X connect 11 1 12 0;
