#N canvas 649 40 1149 475 10;
#X obj 138 27 tgl 15 0 empty empty empty 17 7 0 10 -262144 -1 -1 1
1;
#X floatatom 476 155 5 0 0 0 - - -, f 5;
#X floatatom 45 161 5 0 0 0 - - -, f 5;
#X text 20 260 48;
#X text 505 263 95;
#X floatatom 226 54 5 0 0 0 - - -, f 5;
#X floatatom 289 115 5 0 0 0 - - -, f 5;
#X obj 45 294 unpack;
#X floatatom 84 321 5 0 0 0 - - -, f 5;
#X floatatom 45 356 5 0 0 0 - - -, f 5;
#X obj 45 193 keyboard 16 80 4 3 0;
#X obj 137 122 makenote 127 1500;
#X obj 138 55 metro 0.1;
#X obj 137 79 expr random(48 \, 95);
#X text 354 296 in range;
#X obj 723 42 tgl 15 0 empty empty empty 17 7 0 10 -262144 -1 -1 1
1;
#X floatatom 1061 170 5 0 0 0 - - -, f 5;
#X floatatom 630 176 5 0 0 0 - - -, f 5;
#X text 605 275 48;
#X text 1090 278 95;
#X floatatom 811 69 5 0 0 0 - - -, f 5;
#X floatatom 874 130 5 0 0 0 - - -, f 5;
#X obj 630 309 unpack;
#X floatatom 669 336 5 0 0 0 - - -, f 5;
#X floatatom 630 371 5 0 0 0 - - -, f 5;
#X obj 630 208 keyboard 16 80 4 3 0;
#X obj 722 137 makenote 127 1500;
#X obj 723 70 metro 0.1;
#X text 939 311 out of range;
#X obj 722 94 expr random(-2000 \, 2000);
#X connect 0 0 12 0;
#X connect 1 0 10 1;
#X connect 2 0 10 0;
#X connect 5 0 12 1;
#X connect 6 0 11 2;
#X connect 7 0 9 0;
#X connect 7 1 8 0;
#X connect 10 0 7 0;
#X connect 11 0 2 0;
#X connect 11 1 1 0;
#X connect 12 0 13 0;
#X connect 13 0 11 0;
#X connect 15 0 27 0;
#X connect 16 0 25 1;
#X connect 17 0 25 0;
#X connect 20 0 27 1;
#X connect 21 0 26 2;
#X connect 22 0 24 0;
#X connect 22 1 23 0;
#X connect 25 0 22 0;
#X connect 26 0 17 0;
#X connect 26 1 16 0;
#X connect 27 0 29 0;
#X connect 29 0 26 0;
