#N canvas 487 212 1110 622 10;
#X text 673 451 KNOW BUG: The computer keyboard buffer is not disabled.
\; It can creates a serie of notes on and off if a key is \; pressed
and not released.;
#X text 742 225 width 476 / height 80 / octaves 4 / first c 48;
#X text 638 184 keyboard 450 80 4 48 0;
#X text 245 463 add transposition -(11 to 11);
#X text 245 492 add send and receive symbols;
#X text 246 523 add inlet/outlet to GUI;
#X obj 161 126 makenote 127 500;
#X obj 161 32 tgl 15 0 empty empty empty 17 7 0 10 -262144 -1 -1 0
1;
#X floatatom 510 159 5 0 0 0 - - -;
#X floatatom 69 165 5 0 0 0 - - -;
#X text 44 264 48;
#X text 749 271 95;
#X obj 161 56 metro 25;
#X floatatom 214 33 5 0 0 0 - - -;
#X floatatom 269 106 5 0 0 0 - - -;
#X obj 70 298 unpack;
#X floatatom 109 325 5 0 0 0 - - -;
#X floatatom 70 360 5 0 0 0 - - -;
#X obj 161 80 expr random(50 \, 85);
#X text 250 555 TOGGLE MODE;
#X text 261 329 message methods \; - width \; - height \; - 8ves \;
- low-c \; - up \; - down;
#X msg 168 176 60 0;
#X msg 484 330 oct up;
#X msg 484 361 oct down;
#X msg 552 339 oct \$1;
#X text 598 339 number of octaves up or down;
#X msg 485 395 8ves \$1;
#X text 534 393 # of octaves;
#X msg 485 433 bottom-C;
#X text 670 389 The width and height may be ajusted automatically \;
The C value are clipped from 0 to 8;
#X obj 152 214 keyboard 16 80 4 3 0;
#X connect 6 0 9 0;
#X connect 6 1 8 0;
#X connect 7 0 12 0;
#X connect 12 0 18 0;
#X connect 13 0 12 1;
#X connect 14 0 6 2;
#X connect 15 0 17 0;
#X connect 15 1 16 0;
#X connect 18 0 6 0;
