#N canvas 527 86 1110 622 10;
#X text 672 434 KNOW BUG: The computer keyboard buffer is not disabled.
\; It can creates a serie of notes on and off if a key is \; pressed
and not released.;
#X text 757 104 width 476 / height 80 / octaves 4 / first c 48;
#X text 653 63 keyboard 450 80 4 48 0;
#X text 245 463 add transposition -(11 to 11);
#X text 245 492 add send and receive symbols;
#X text 246 523 add inlet/outlet to GUI;
#X obj 161 126 makenote 127 500;
#X obj 161 32 tgl 15 0 empty empty empty 17 7 0 10 -262144 -1 -1 0
1;
#X floatatom 510 159 5 0 0 0 - - -;
#X floatatom 69 165 5 0 0 0 - - -;
#X text 44 264 48;
#X text 764 150 95;
#X obj 161 56 metro 25;
#X floatatom 214 33 5 0 0 0 - - -;
#X floatatom 269 106 5 0 0 0 - - -;
#X obj 152 331 unpack;
#X floatatom 191 358 5 0 0 0 - - -;
#X floatatom 152 393 5 0 0 0 - - -;
#X obj 161 80 expr random(50 \, 85);
#X text 250 555 TOGGLE MODE;
#X msg 484 330 oct up;
#X msg 484 361 oct down;
#X msg 552 339 oct \$1;
#X text 598 339 number of octaves up or down;
#X msg 485 395 8ves \$1;
#X text 534 393 # of octaves;
#X msg 485 433 bottom-C;
#X text 670 389 The width and height may be ajusted automatically \;
The C value are clipped from 0 to 8;
#X obj 188 235 keyboard 22 82 3 2 0;
#X msg 205 191 8ves 2;
#X text 672 496 color intensity according to velocity;
#X text 673 529 set velocity output;
#X text 674 566 set starting note (F4 \, Bb3 \, G#5 \, whatever);
#X msg 281 192 8ves 3;
#X msg 355 195 width \$1;
#X floatatom 361 176 5 0 0 0 - - -;
#X floatatom 116 198 5 0 0 0 - - -;
#X msg 113 219 height \$1;
#X msg 112 284 oct -1;
#X text 80 476 message methods \; - low-c \; - up \; - down;
#X connect 6 0 9 0;
#X connect 6 0 28 0;
#X connect 6 1 8 0;
#X connect 7 0 12 0;
#X connect 8 0 28 1;
#X connect 12 0 18 0;
#X connect 13 0 12 1;
#X connect 14 0 6 2;
#X connect 15 0 17 0;
#X connect 15 1 16 0;
#X connect 18 0 6 0;
#X connect 28 0 15 0;
#X connect 29 0 28 0;
#X connect 33 0 28 0;
#X connect 34 0 28 0;
#X connect 35 0 34 0;
#X connect 36 0 37 0;
#X connect 37 0 28 0;
#X connect 38 0 28 0;
